<svg width="303" height="281" viewBox="0 0 303 281" fill="none" xmlns="http://www.w3.org/2000/svg">
<path fill-rule="evenodd" clip-rule="evenodd" d="M79.4564 2.70404C99.5736 -6.59153 129.22 11.2762 157.143 45.7774C139.346 29.4405 122.034 22.3006 109.291 28.1886C83.3823 40.1604 86.1755 101.43 115.53 165.038C144.885 228.646 189.685 270.505 215.594 258.533C219.492 256.732 222.736 253.808 225.342 249.935C222.215 263.718 215.961 273.606 206.495 277.979C175.532 292.287 121.993 242.262 86.9124 166.247C51.8317 90.2318 48.4937 17.0111 79.4564 2.70404V2.70404Z" fill="#1D1C15"/>
<path fill-rule="evenodd" clip-rule="evenodd" d="M22.3008 200.087C33.9053 218.976 68.479 220.529 110.825 207.277C86.9643 211.017 68.5981 207.367 61.2477 195.403C46.3019 171.076 82.5409 121.61 142.19 84.9178C201.838 48.2256 262.309 38.2014 277.255 62.5283C279.504 66.1883 280.586 70.4208 280.611 75.0898C285.637 61.8806 285.903 50.182 280.442 41.2941C262.581 12.2221 190.315 24.2016 119.031 68.0512C47.7475 111.901 4.43972 171.015 22.3008 200.087V200.087Z" fill="#1D1C15"/>
<path fill-rule="evenodd" clip-rule="evenodd" d="M302.401 167.327C300.645 189.429 270.555 206.537 226.817 213.993C249.768 206.472 264.47 194.868 265.582 180.868C267.845 152.401 213.096 124.823 143.297 119.269C73.499 113.715 15.0823 132.289 12.8201 160.755C12.4797 165.038 13.4386 169.3 15.5364 173.471C5.0601 163.991 -0.490864 153.691 0.335612 143.291C3.0392 109.272 72.8506 87.075 156.264 93.7123C239.677 100.35 305.105 133.308 302.401 167.327V167.327Z" fill="#FFF72A"/>
<path d="M287.585 116.647C295.813 116.647 302.483 109.973 302.483 101.74C302.483 93.5064 295.813 86.832 287.585 86.832C279.357 86.832 272.687 93.5064 272.687 101.74C272.687 109.973 279.357 116.647 287.585 116.647Z" fill="#1D1C15"/>
<path d="M27.9267 86.8329C36.1548 86.8329 42.825 80.1585 42.825 71.9252C42.825 63.692 36.1548 57.0176 27.9267 57.0176C19.6985 57.0176 13.0283 63.692 13.0283 71.9252C13.0283 80.1585 19.6985 86.8329 27.9267 86.8329Z" fill="#1D1C15"/>
</svg>
