<svg width="303" height="281" viewBox="0 0 303 281" fill="none" xmlns="http://www.w3.org/2000/svg">
<path fill-rule="evenodd" clip-rule="evenodd" d="M79.4564 3.1435C99.5736 -6.15208 129.22 11.7156 157.143 46.2168C139.346 29.8799 122.034 22.74 109.291 28.6281C83.3823 40.5999 86.1755 101.869 115.53 165.477C144.885 229.085 189.685 270.945 215.594 258.973C219.492 257.172 222.736 254.247 225.342 250.374C222.215 264.157 215.961 274.045 206.495 278.419C175.532 292.726 121.993 242.702 86.9124 166.686C51.8317 90.6712 48.4937 17.4505 79.4564 3.1435V3.1435Z" fill="white"/>
<path fill-rule="evenodd" clip-rule="evenodd" d="M22.3008 200.527C33.9053 219.415 68.479 220.968 110.825 207.717C86.9643 211.456 68.5981 207.807 61.2477 195.842C46.3019 171.515 82.5409 122.05 142.19 85.3573C201.838 48.665 262.309 38.6408 277.255 62.9677C279.504 66.6278 280.586 70.8602 280.611 75.5292C285.637 62.3201 285.903 50.6215 280.442 41.7335C262.581 12.6616 190.315 24.6411 119.031 68.4906C47.7475 112.34 4.43972 171.454 22.3008 200.527V200.527Z" fill="white"/>
<path fill-rule="evenodd" clip-rule="evenodd" d="M302.401 167.766C300.645 189.868 270.555 206.976 226.817 214.433C249.768 206.911 264.47 195.307 265.582 181.307C267.845 152.841 213.096 125.262 143.297 119.708C73.499 114.154 15.0823 132.728 12.8201 161.195C12.4797 165.477 13.4386 169.74 15.5364 173.91C5.0601 164.43 -0.490864 154.131 0.335612 143.73C3.0392 109.712 72.8506 87.5145 156.264 94.1517C239.677 100.789 305.105 133.747 302.401 167.766V167.766Z" fill="#FFF72A"/>
<path d="M287.585 117.087C295.813 117.087 302.483 110.412 302.483 102.179C302.483 93.9458 295.813 87.2715 287.585 87.2715C279.357 87.2715 272.687 93.9458 272.687 102.179C272.687 110.412 279.357 117.087 287.585 117.087Z" fill="white"/>
<path d="M27.9267 87.2723C36.1548 87.2723 42.825 80.5979 42.825 72.3647C42.825 64.1314 36.1548 57.457 27.9267 57.457C19.6985 57.457 13.0283 64.1314 13.0283 72.3647C13.0283 80.5979 19.6985 87.2723 27.9267 87.2723Z" fill="white"/>
</svg>
